# xmcd
# 
# Track frame offsets:
#     150
#     18410
#     34525
#     50220
#     67345
#     84352
#     100760
#     114160
#     133412
#     153152
#     176702
#     194134
#     207117
#     216705
#     231400
#     243805
#     255690
#     271092
#     293337
#     308285
# 
# Disc length: 4332
# 
# Revision: 6
# Processed by: cddbd v1.5.2PL0 Copyright (c) Steve Scherf et al.
# Submitted via: fre:ac v1.0.27
# 
DISCID=1f10ea14
DTITLE=Various Artist - Latin Fever
DYEAR=2000
DGENRE=Latin
TTITLE0=Ricky Martin - Livin' La Vida Loca
TTITLE1=Enrique Iglesias - Bailamos
TTITLE2=Shaft - (Mucho Mambo) Sway
TTITLE3=Jennifer Lopez - If You Had My Love
TTITLE4=Cher - Dov'é L'Amore (Emilio Estefan Jnr Mix)
TTITLE5=Christina Aguilera - Genio Atrapado (Genie In A Bottle)
TTITLE6=Arrow - Hot Got Hot
TTITLE7=Santana - Oye Come Va
TTITLE8=The Mavericks - Dance The Night Away
TTITLE9=Astrud Gilberto - The Girl From Ipanema
TTITLE10=Gibson Brothers - Que Sera Mi Vida
TTITLE11=Los Lobos - La Bamba
TTITLE12=Herb Alpert - Tijuana Taxi
TTITLE13=Mongo Santamaria - Watermelon Man
TTITLE14=Quincy Jones - Soul Bossa Nova
TTITLE15=Sergio Mendes and Brazil 66/Tomba Trio - Mas Que Nada
TTITLE16=Kaoma - Lambada
TTITLE17=Gloria Estefan - Oye Mi Canto (Hear My Voice)
TTITLE18=Will Smith - Miami
TTITLE19=Lou Bega - Mambo No. 5 (A Little Bit Of...)
EXTD=YEAR: 2000 ID3G: 86
EXTT0=
EXTT1=
EXTT2=
EXTT3=
EXTT4=
EXTT5=
EXTT6=
EXTT7=
EXTT8=
EXTT9=
EXTT10=
EXTT11=
EXTT12=
EXTT13=
EXTT14=
EXTT15=
EXTT16=
EXTT17=
EXTT18=
EXTT19=
PLAYORDER=
